<svg width="29" height="28" viewBox="0 0 29 28" fill="none" xmlns="http://www.w3.org/2000/svg">
<path d="M16.4545 21.4938C14.2223 20.6647 11.9264 20.5371 9.82176 21.1111C8.35491 21.4938 6.95183 22.2591 5.6763 23.2157L4.78342 23.9811L4.52832 24.2362L5.1023 24.7464C5.16608 24.7464 5.16609 24.8101 5.22986 24.8739C5.35742 25.0015 5.48498 25.0652 5.6763 25.1928L6.05895 25.4479L6.44161 25.129C6.50538 25.0652 6.63294 24.9377 6.76049 24.8739C7.90846 23.9173 9.18398 23.2795 10.5233 22.9606C12.2452 22.5142 14.0947 22.578 15.9443 23.2795C17.4749 23.8535 20.5999 24.555 24.3627 22.9606L24.4903 22.8969L24.6816 22.7055C24.6816 22.6418 24.7454 22.6417 24.8092 22.578C25.128 22.1953 25.4469 21.8127 25.702 21.3662L26.9776 19.3892L24.9367 20.5371C21.9392 22.1953 19.1969 22.5142 16.4545 21.4938Z" fill="#55B02E"/>
<path d="M7.7164 14.6058C9.43836 14.1593 11.2879 14.2231 13.1374 14.9246C15.1782 15.69 20.4079 16.7742 26.2753 11.4807L27.2319 10.5241L27.2957 10.4603L27.5508 10.2052L27.4233 9.88633C27.3595 9.63123 27.2319 9.31235 27.1044 8.99347L26.7855 8.10059L26.1477 8.73835C26.084 8.8659 25.9564 8.92968 25.8288 9.05723C23.0227 11.9272 18.6859 14.8609 13.7114 13.0751C11.4792 12.2461 9.18326 12.1185 7.07864 12.6925C5.0378 13.2665 3.25207 14.3507 1.59388 15.8813V15.8175L0.63724 16.8379C0.63724 16.9017 0.573476 16.9017 0.5097 16.9655L0.318359 17.1568L0.382139 17.4119C0.445916 17.7308 0.573464 18.0497 0.63724 18.3686L1.0199 19.389L1.65766 18.5599C1.72144 18.4324 1.84899 18.3686 1.91276 18.241C3.25207 17.0293 5.10158 15.3073 7.7164 14.6058Z" fill="#55B02E"/>
<path d="M1.53065 13.4579C2.9975 11.9273 4.65567 10.9706 6.4414 10.4604C8.16336 10.014 10.0129 10.0777 11.8624 10.7793C17.6022 12.8839 22.5768 9.43998 24.7452 7.59047L25.5743 6.76139L25.8932 6.50627L25.6381 6.12363C25.4467 5.9323 25.3192 5.67719 25.1278 5.42209L24.7452 4.91187L24.2987 5.35831C24.235 5.42208 24.1074 5.54963 24.0436 5.61341C21.365 8.16446 17.2196 10.7793 12.5001 8.99356C10.268 8.16447 7.97204 8.03691 5.86742 8.6109C4.52812 8.99356 3.25259 9.63131 1.97707 10.4604L0.637762 11.5446C0.51021 11.6722 0.446434 11.7359 0.318881 11.8635L0.19134 11.991V12.1824C0.127564 12.6288 0.127556 13.0752 0.0637801 13.4579L0 15.0523L1.0842 13.9043C1.21176 13.7768 1.33932 13.5854 1.53065 13.4579Z" fill="#55B02E"/>
<path d="M18.3037 25.8305L18.1762 26.2132L18.3037 25.8305C18.1124 25.7667 17.9848 25.7029 17.7935 25.6392C15.5614 24.8101 13.2654 24.6825 11.1608 25.2565C10.7143 25.3841 10.2679 25.5116 9.82149 25.7029L8.29084 26.4045L7.9082 26.5958L9.18373 27.0422C9.56639 27.1698 9.94903 27.2974 10.3317 27.4249L10.523 27.4887L10.7144 27.4249C10.9057 27.3611 11.097 27.2336 11.2883 27.2336C11.4159 27.2336 11.5434 27.1698 11.671 27.106C13.2016 26.7234 14.8598 26.7234 16.6455 27.2973C16.8369 27.3611 16.9644 27.4249 17.1558 27.4887L17.4746 27.6162L17.666 27.5524C18.1124 27.4249 18.6226 27.2974 19.0053 27.106L20.791 26.4683L18.9415 26.0218C18.7502 25.958 18.495 25.8943 18.3037 25.8305Z" fill="#55B02E"/>
<path d="M28.0614 12.6289L27.1048 13.5855C26.9772 13.7131 26.8497 13.8407 26.7221 13.9682C24.1073 16.4555 19.8981 19.1341 15.1786 17.3483C12.9465 16.5193 10.6505 16.3917 8.54589 16.9657C6.56883 17.5397 4.78308 18.5601 3.18868 20.0907L2.35959 20.9836L2.10449 21.3025L2.35959 21.6851C2.55092 21.9402 2.67848 22.1316 2.80603 22.3867L3.18868 22.9607L3.63512 22.3867C3.69889 22.3229 3.82644 22.1953 3.89022 22.1316C5.42085 20.4734 7.07903 19.453 8.99232 18.9427C10.7143 18.4963 12.5638 18.5601 14.4133 19.2616C16.0077 19.8356 17.6659 20.027 19.3241 19.8356C22.2578 19.5168 25.1915 17.8586 27.3599 16.0091C27.4874 15.8815 27.615 15.8177 27.7425 15.6902L27.9339 15.4988V15.3075C27.9339 14.9249 27.9976 14.4784 27.9976 14.0958L28.0614 12.6289Z" fill="#55B02E"/>
<path d="M3.82635 6.76151L3.63503 6.37885L3.82635 6.76151C4.20901 6.57019 4.65546 6.44263 5.03812 6.31507C6.76008 5.86864 8.60959 5.93242 10.4591 6.63395C11.6708 7.08039 12.8826 7.27172 14.2219 7.27172C16.9005 7.27172 19.5791 6.31508 22.0664 4.46557L23.023 3.70024L23.3419 3.44514L22.7679 2.9987C22.5766 2.80737 22.3215 2.61605 22.0664 2.4885L21.6837 2.2334L21.3648 2.4885C21.2373 2.55228 21.1735 2.67982 21.0459 2.7436C17.6658 5.29465 14.2857 5.9962 11.0969 4.78445C8.80092 3.95536 6.50496 3.76403 4.20902 4.46557C4.01769 4.52934 3.82636 4.59311 3.57125 4.65689L3.44371 4.72067L3.25237 4.91199C3.25237 4.97576 3.18861 4.97577 3.12483 5.03955C2.86973 5.42221 2.55083 5.74109 2.29573 6.12375L1.08398 7.97326L3.06105 6.95284C3.37993 6.95284 3.63503 6.82529 3.82635 6.76151Z" fill="#55B02E"/>
<path d="M9.05647 2.42462L9.24779 2.4884C10.0769 2.80728 11.3524 3.12616 12.9468 3.12616C14.605 3.12616 16.1994 2.7435 17.7938 2.10574L19.7709 1.14909L18.4316 0.70267C18.0489 0.575118 17.6663 0.447565 17.2198 0.383789H17.0285L16.8372 0.44755C16.6459 0.511326 16.4545 0.638894 16.2632 0.70267C14.3499 1.40421 12.4366 1.53176 10.5871 1.02155C10.3958 0.957775 10.2044 0.893987 10.0131 0.830211L9.82179 0.766431L9.63045 0.830211C9.2478 0.957763 8.86515 1.08532 8.48249 1.27665L7.01562 1.91441L8.54627 2.36084C8.67382 2.29706 8.86514 2.36084 9.05647 2.42462Z" fill="#55B02E"/>
</svg>
